<svg width="46" height="46" viewBox="0 0 46 46" fill="none" xmlns="http://www.w3.org/2000/svg">
<circle cx="23" cy="23" r="22.25" fill="white" stroke="#675DA9" stroke-width="1.5"/>
<path d="M31.7896 14.178C31.2358 13.6688 28.9936 12.0386 23.9957 12.0163C23.9957 12.0163 18.1045 11.6589 15.2325 14.2941C13.6336 15.8931 13.0708 18.2291 13.0127 21.1323C12.9547 24.031 12.8787 29.4666 18.1179 30.9406H18.1223L18.1179 33.1872C18.1179 33.1872 18.0866 34.0983 18.6851 34.2815C19.4087 34.5048 19.8374 33.8125 20.5297 33.0666C20.9094 32.6557 21.432 32.0572 21.8295 31.5971C25.4116 31.8964 28.1673 31.2086 28.48 31.1058C29.2036 30.8691 33.2993 30.3465 33.9648 24.9109C34.6526 19.3189 33.6298 15.777 31.7896 14.178ZM32.3971 24.5178C31.8343 29.0557 28.5157 29.3416 27.9038 29.5381C27.6448 29.623 25.224 30.2259 22.1779 30.0249C22.1779 30.0249 19.9089 32.7629 19.2032 33.473C19.0915 33.5847 18.962 33.6294 18.8772 33.607C18.7566 33.5758 18.7208 33.4328 18.7253 33.2229C18.7253 32.9192 18.7432 29.4845 18.7432 29.4845C18.7387 29.4845 18.7387 29.4845 18.7432 29.4845C14.308 28.2562 14.567 23.629 14.6162 21.2082C14.6653 18.7874 15.1209 16.7998 16.4742 15.4644C18.8995 13.2669 23.9064 13.5929 23.9064 13.5929C28.1316 13.6108 30.1549 14.8837 30.6239 15.308C32.1827 16.648 32.9777 19.8415 32.3971 24.5178Z" fill="#675DA9"/>
<path d="M26.0546 21.2931C25.9072 21.2931 25.7822 21.177 25.7733 21.0251C25.7241 20.0648 25.273 19.5958 24.3529 19.5467C24.1966 19.5378 24.076 19.4038 24.0849 19.2475C24.0939 19.0911 24.2279 18.9705 24.3842 18.9795C25.5991 19.0465 26.278 19.7432 26.3405 20.9938C26.3494 21.1502 26.2288 21.2842 26.0725 21.2886C26.0636 21.2931 26.0591 21.2931 26.0546 21.2931Z" fill="#675DA9"/>
<path d="M27.5019 21.7758H27.4975C27.3411 21.7713 27.2161 21.6418 27.2205 21.4854C27.2429 20.5207 26.966 19.7391 26.3764 19.0959C25.7913 18.4527 24.9829 18.1044 23.9154 18.0284C23.7591 18.015 23.6429 17.881 23.6563 17.7247C23.6697 17.5684 23.8037 17.4523 23.96 17.4657C25.166 17.555 26.1173 17.9748 26.7962 18.7163C27.4796 19.4622 27.8101 20.3956 27.7878 21.4988C27.7833 21.6552 27.6538 21.7758 27.5019 21.7758Z" fill="#675DA9"/>
<path d="M28.9847 22.3564C28.8284 22.3564 28.7033 22.2313 28.7033 22.075C28.6899 20.3465 28.1941 19.0289 27.1847 18.0418C26.1887 17.0681 24.9247 16.5723 23.4374 16.5589C23.2811 16.5589 23.156 16.4294 23.156 16.2731C23.156 16.1168 23.2855 15.9917 23.4374 15.9917C25.0766 16.0051 26.4701 16.5545 27.5733 17.6353C28.681 18.7162 29.2482 20.208 29.2661 22.0661C29.2706 22.2268 29.1455 22.3564 28.9847 22.3564C28.9892 22.3564 28.9892 22.3564 28.9847 22.3564Z" fill="#675DA9"/>
<path d="M24.4201 24.7905C24.4201 24.7905 24.8176 24.8262 25.032 24.5627L25.4474 24.0401C25.6483 23.7811 26.1352 23.6158 26.6086 23.8794C26.8722 24.0267 27.3501 24.3215 27.6448 24.5404C27.962 24.7726 28.6051 25.3086 28.6096 25.3131C28.9178 25.5721 28.9892 25.9518 28.7793 26.3582C28.7793 26.3582 28.7793 26.3627 28.7793 26.3672C28.5649 26.7468 28.2746 27.1041 27.9128 27.4346C27.9084 27.4346 27.9084 27.4391 27.9039 27.4391C27.6046 27.6892 27.3099 27.8322 27.024 27.8634C26.9883 27.8724 26.9481 27.8724 26.8945 27.8724C26.7694 27.8724 26.6444 27.8545 26.5193 27.8143L26.5104 27.8009C26.0637 27.6758 25.3223 27.3632 24.0896 26.6798C23.2856 26.2376 22.6201 25.7865 22.0529 25.3354C21.7536 25.0987 21.4499 24.8352 21.1372 24.5225C21.1283 24.5136 21.1149 24.5002 21.106 24.4913C21.097 24.4823 21.0836 24.4689 21.0747 24.46C21.0658 24.4511 21.0524 24.4377 21.0434 24.4287C21.0345 24.4198 21.0211 24.4064 21.0122 24.3975C20.704 24.0848 20.436 23.7811 20.1993 23.4818C19.7482 22.9191 19.2971 22.2491 18.8549 21.4451C18.1715 20.2079 17.8589 19.4665 17.7338 19.0243L17.7204 19.0154C17.6802 18.8903 17.6624 18.7653 17.6624 18.6402C17.6624 18.5866 17.6624 18.5464 17.6713 18.5107C17.707 18.2204 17.8499 17.9301 18.0956 17.6308C18.0956 17.6263 18.1001 17.6263 18.1001 17.6219C18.4306 17.2556 18.7879 16.9698 19.1675 16.7554C19.1675 16.7554 19.172 16.7554 19.1765 16.7554C19.5785 16.5455 19.9581 16.6169 20.2216 16.9251C20.2216 16.9251 20.7621 17.5727 20.9943 17.8899C21.2132 18.1891 21.508 18.6626 21.6554 18.9261C21.9189 19.3995 21.7536 19.8864 21.4946 20.0873L20.972 20.5027C20.7085 20.7171 20.7442 21.1146 20.7442 21.1146C20.7442 21.1146 21.5169 24.0535 24.4201 24.7905Z" fill="#675DA9"/>
</svg>
